{
  "accessors": [
    {
      "bufferView": 2,
      "componentType": 5126,
      "count": 32937,
      "max": [1.25, 0.4459429979324341, 0.26252099871635437],
      "min": [-1.25, -0.44593000411987305, -0.23935499787330627],
      "type": "VEC3"
    },
    {
      "bufferView": 2,
      "byteOffset": 395244,
      "componentType": 5126,
      "count": 32937,
      "max": [1.0, 1.0, 1.0],
      "min": [-1.0, -1.0, -1.0],
      "type": "VEC3"
    },
    {
      "bufferView": 1,
      "componentType": 5126,
      "count": 32937,
      "max": [0.9984999895095825, 0.9992129802703857],
      "min": [0.0005000000237487257, 0.0033100000582635403],
      "type": "VEC2"
    },
    {
      "bufferView": 0,
      "componentType": 5125,
      "count": 103170,
      "type": "SCALAR"
    },
    {
      "bufferView": 2,
      "byteOffset": 790488,
      "componentType": 5126,
      "count": 411,
      "max": [0.07351099699735641, 0.08831699937582016, 0.02153100073337555],
      "min": [-0.5199980139732361, -0.08830399811267853, -0.17413699626922607],
      "type": "VEC3"
    },
    {
      "bufferView": 2,
      "byteOffset": 795420,
      "componentType": 5126,
      "count": 411,
      "max": [0.9999877214431763, 1.0, 0.9998480081558228],
      "min": [-0.9974583983421326, -1.0, -0.9990692138671875],
      "type": "VEC3"
    },
    {
      "bufferView": 1,
      "byteOffset": 263496,
      "componentType": 5126,
      "count": 411,
      "max": [0.9670640230178833, 0.8675969839096069],
      "min": [0.017710000276565552, 0.10122299939393997],
      "type": "VEC2"
    },
    {
      "bufferView": 0,
      "byteOffset": 412680,
      "componentType": 5125,
      "count": 1275,
      "type": "SCALAR"
    },
    {
      "bufferView": 2,
      "byteOffset": 800352,
      "componentType": 5126,
      "count": 16192,
      "max": [0.998835027217865, 0.46271198987960815, -0.032520998269319534],
      "min": [-0.7887700200080872, -0.4627059996128082, -0.19261600077152252],
      "type": "VEC3"
    },
    {
      "bufferView": 2,
      "byteOffset": 994656,
      "componentType": 5126,
      "count": 16192,
      "max": [1.0, 1.0, 1.0],
      "min": [-1.0, -1.0, -1.0],
      "type": "VEC3"
    },
    {
      "bufferView": 1,
      "byteOffset": 266784,
      "componentType": 5126,
      "count": 16192,
      "max": [0.9965860247612, 0.9964320063591003],
      "min": [0.005688000004738569, 0.0075079998932778835],
      "type": "VEC2"
    },
    {
      "bufferView": 0,
      "byteOffset": 417780,
      "componentType": 5125,
      "count": 63768,
      "type": "SCALAR"
    },
    {
      "bufferView": 2,
      "byteOffset": 1188960,
      "componentType": 5126,
      "count": 12040,
      "max": [1.0695849657058716, 0.4629630148410797, 0.037383001297712326],
      "min": [-0.8586729764938354, -0.4629630148410797, -0.26252099871635437],
      "type": "VEC3"
    },
    {
      "bufferView": 2,
      "byteOffset": 1333440,
      "componentType": 5126,
      "count": 12040,
      "max": [0.9993759393692017, 0.9998794794082642, 0.9990280270576477],
      "min": [-0.9994122385978699, -0.9998798966407776, -0.999125063419342],
      "type": "VEC3"
    },
    {
      "bufferView": 1,
      "byteOffset": 396320,
      "componentType": 5126,
      "count": 12040,
      "max": [4.000555992126465, 0.999987006187439],
      "min": [0.0, 0.000299000006634742],
      "type": "VEC2"
    },
    {
      "bufferView": 0,
      "byteOffset": 672852,
      "componentType": 5125,
      "count": 63360,
      "type": "SCALAR"
    }
  ],
  "asset": {
    "extras": {
      "author": "LuizZed36 (https://sketchfab.com/LuizZed36)",
      "license": "CC-BY-4.0 (http://creativecommons.org/licenses/by/4.0/)",
      "source": "https://sketchfab.com/3d-models/formula-1-generico-2-dad6855b22954bfc857320f2ce2db55e",
      "title": "Formula 1 Genérico 2"
    },
    "generator": "Sketchfab-16.29.0",
    "version": "2.0"
  },
  "bufferViews": [
    {
      "buffer": 0,
      "byteLength": 926292,
      "name": "floatBufferViews",
      "target": 34963
    },
    {
      "buffer": 0,
      "byteLength": 492640,
      "byteOffset": 926292,
      "byteStride": 8,
      "name": "floatBufferViews",
      "target": 34962
    },
    {
      "buffer": 0,
      "byteLength": 1477920,
      "byteOffset": 1418932,
      "byteStride": 12,
      "name": "floatBufferViews",
      "target": 34962
    }
  ],
  "buffers": [
    {
      "byteLength": 2896852,
      "uri": "scene.bin"
    }
  ],
  "images": [
    {
      "uri": "/Material_1_baseColor.jpeg"
    },
    {
      "uri": "/Material_2_baseColor.jpeg"
    },
    {
      "uri": "/Material_3_baseColor.jpeg"
    },
    {
      "uri": "/Material_4_baseColor.jpeg"
    }
  ],
  "materials": [
    {
      "doubleSided": true,
      "name": "Material_1",
      "pbrMetallicRoughness": {
        "baseColorTexture": {
          "index": 0
        },
        "metallicFactor": 0.5387464618098582,
        "roughnessFactor": 0.2700758279905956
      }
    },
    {
      "doubleSided": true,
      "name": "Material_2",
      "pbrMetallicRoughness": {
        "baseColorTexture": {
          "index": 1
        },
        "metallicFactor": 0.0
      }
    },
    {
      "doubleSided": true,
      "name": "Material_3",
      "pbrMetallicRoughness": {
        "baseColorTexture": {
          "index": 2
        },
        "metallicFactor": 0.3556473923137561,
        "roughnessFactor": 0.31854220038546344
      }
    },
    {
      "doubleSided": true,
      "name": "Material_4",
      "pbrMetallicRoughness": {
        "baseColorTexture": {
          "index": 3
        },
        "metallicFactor": 0.12946664434943256,
        "roughnessFactor": 0.3293120519528068
      }
    }
  ],
  "meshes": [
    {
      "name": "Object_0",
      "primitives": [
        {
          "attributes": {
            "NORMAL": 1,
            "POSITION": 0,
            "TEXCOORD_0": 2
          },
          "indices": 3,
          "material": 0,
          "mode": 4
        }
      ]
    },
    {
      "name": "Object_1",
      "primitives": [
        {
          "attributes": {
            "NORMAL": 5,
            "POSITION": 4,
            "TEXCOORD_0": 6
          },
          "indices": 7,
          "material": 1,
          "mode": 4
        }
      ]
    },
    {
      "name": "Object_2",
      "primitives": [
        {
          "attributes": {
            "NORMAL": 9,
            "POSITION": 8,
            "TEXCOORD_0": 10
          },
          "indices": 11,
          "material": 2,
          "mode": 4
        }
      ]
    },
    {
      "name": "Object_3",
      "primitives": [
        {
          "attributes": {
            "NORMAL": 13,
            "POSITION": 12,
            "TEXCOORD_0": 14
          },
          "indices": 15,
          "material": 3,
          "mode": 4
        }
      ]
    }
  ],
  "nodes": [
    {
      "children": [1],
      "matrix": [
        1.0, 0.0, 0.0, 0.0, 0.0, 2.220446049250313e-16, -1.0, 0.0, 0.0, 1.0,
        2.220446049250313e-16, 0.0, 0.0, 0.0, 0.0, 1.0
      ],
      "name": "Sketchfab_model"
    },
    {
      "children": [2, 3, 4, 5],
      "name": "QJPZBX4SFB2TFZU5B6KC4U43X.obj.cleaner.materialmerger.gles"
    },
    {
      "mesh": 0,
      "name": "Object_2"
    },
    {
      "mesh": 1,
      "name": "Object_3"
    },
    {
      "mesh": 2,
      "name": "Object_4"
    },
    {
      "mesh": 3,
      "name": "Object_5"
    }
  ],
  "samplers": [
    {
      "magFilter": 9729,
      "minFilter": 9987,
      "wrapS": 10497,
      "wrapT": 10497
    }
  ],
  "scene": 0,
  "scenes": [
    {
      "name": "Sketchfab_Scene",
      "nodes": [0]
    }
  ],
  "textures": [
    {
      "sampler": 0,
      "source": 0
    },
    {
      "sampler": 0,
      "source": 1
    },
    {
      "sampler": 0,
      "source": 2
    },
    {
      "sampler": 0,
      "source": 3
    }
  ]
}
